<svg width="217" height="217" viewBox="0 0 217 217" fill="none" xmlns="http://www.w3.org/2000/svg">
<path d="M40.2806 5.06333C41.554 3.47539 43.1347 2.20053 44.914 1.32647C46.6934 0.452395 48.6291 -0.000137443 50.5881 3.13129e-08H166.412C168.371 -0.000137443 170.307 0.452395 172.086 1.32647C173.865 2.20053 175.446 3.47539 176.719 5.06333L212.104 49.0999C215.263 53.0324 217 58.0404 217 63.2193V66.9083C217.001 74.069 214.904 81.051 211.003 86.8784C207.102 92.7059 201.591 97.0876 195.241 99.4112C188.892 101.735 182.02 101.884 175.586 99.8384C169.153 97.7926 163.48 93.6539 159.359 88.0007C156.351 92.1357 152.495 95.4811 148.087 97.7805C143.679 100.08 138.837 101.273 133.93 101.267C129.023 101.273 124.18 100.08 119.772 97.7805C115.364 95.4811 111.508 92.1357 108.5 88.0007C105.492 92.1357 101.636 95.4811 97.228 97.7805C92.8201 100.08 87.9771 101.273 83.0703 101.267C78.1635 101.273 73.3205 100.08 68.9126 97.7805C64.5047 95.4811 60.6489 92.1357 57.6406 88.0007C53.5202 93.6539 47.8469 97.7926 41.4136 99.8384C34.9803 101.884 28.1085 101.735 21.7586 99.4112C15.4088 97.0876 9.89822 92.7059 5.9971 86.8784C2.09597 81.051 -0.000740493 74.069 1.96175e-07 66.9083V63.2193C0.00017099 58.0404 1.73677 53.0324 4.89606 49.0999L40.2806 5.06333ZM64.4219 66.9083C64.4219 72.1839 66.3866 77.2435 69.8839 80.9739C73.3811 84.7043 78.1244 86.8 83.0703 86.8C88.0162 86.8 92.7595 84.7043 96.2568 80.9739C99.754 77.2435 101.719 72.1839 101.719 66.9083C101.719 64.9899 102.433 63.1501 103.705 61.7936C104.977 60.4371 106.702 59.675 108.5 59.675C110.298 59.675 112.023 60.4371 113.295 61.7936C114.567 63.1501 115.281 64.9899 115.281 66.9083C115.281 72.1839 117.246 77.2435 120.743 80.9739C124.241 84.7043 128.984 86.8 133.93 86.8C138.876 86.8 143.619 84.7043 147.116 80.9739C150.613 77.2435 152.578 72.1839 152.578 66.9083C152.578 64.9899 153.293 63.1501 154.564 61.7936C155.836 60.4371 157.561 59.675 159.359 59.675C161.158 59.675 162.883 60.4371 164.154 61.7936C165.426 63.1501 166.141 64.9899 166.141 66.9083C166.141 72.1839 168.105 77.2435 171.603 80.9739C175.1 84.7043 179.843 86.8 184.789 86.8C189.735 86.8 194.478 84.7043 197.976 80.9739C201.473 77.2435 203.438 72.1839 203.438 66.9083V63.2193C203.438 61.4953 202.86 59.8279 201.81 58.5177L166.412 14.4667H50.5881L15.19 58.5177C14.1395 59.8279 13.5624 61.4953 13.5625 63.2193V66.9083C13.5625 72.1839 15.5272 77.2435 19.0245 80.9739C22.5218 84.7043 27.2651 86.8 32.2109 86.8C37.1568 86.8 41.9001 84.7043 45.3974 80.9739C48.8946 77.2435 50.8594 72.1839 50.8594 66.9083C50.8594 64.9899 51.5738 63.1501 52.8456 61.7936C54.1173 60.4371 55.8421 59.675 57.6406 59.675C59.4391 59.675 61.164 60.4371 62.4357 61.7936C63.7074 63.1501 64.4219 64.9899 64.4219 66.9083ZM20.3438 108.5C22.1422 108.5 23.8671 109.262 25.1388 110.619C26.4105 111.975 27.125 113.815 27.125 115.733V202.533H40.6875V130.2C40.6875 126.363 42.1164 122.684 44.6599 119.971C47.2033 117.257 50.653 115.733 54.25 115.733H94.9375C98.5345 115.733 101.984 117.257 104.528 119.971C107.071 122.684 108.5 126.363 108.5 130.2V202.533H189.875V115.733C189.875 113.815 190.589 111.975 191.861 110.619C193.133 109.262 194.858 108.5 196.656 108.5C198.455 108.5 200.18 109.262 201.451 110.619C202.723 111.975 203.438 113.815 203.438 115.733V202.533H210.219C212.017 202.533 213.742 203.295 215.014 204.652C216.286 206.008 217 207.848 217 209.767C217 211.685 216.286 213.525 215.014 214.881C213.742 216.238 212.017 217 210.219 217H6.78125C4.98275 217 3.25791 216.238 1.98618 214.881C0.714451 213.525 1.96175e-07 211.685 1.96175e-07 209.767C1.96175e-07 207.848 0.714451 206.008 1.98618 204.652C3.25791 203.295 4.98275 202.533 6.78125 202.533H13.5625V115.733C13.5625 113.815 14.277 111.975 15.5487 110.619C16.8204 109.262 18.5453 108.5 20.3438 108.5ZM54.25 202.533H94.9375V130.2H54.25V202.533ZM122.062 130.2C122.062 126.363 123.491 122.684 126.035 119.971C128.578 117.257 132.028 115.733 135.625 115.733H162.75C166.347 115.733 169.797 117.257 172.34 119.971C174.884 122.684 176.312 126.363 176.312 130.2V173.6C176.312 177.437 174.884 181.116 172.34 183.829C169.797 186.542 166.347 188.067 162.75 188.067H135.625C132.028 188.067 128.578 186.542 126.035 183.829C123.491 181.116 122.062 177.437 122.062 173.6V130.2ZM162.75 130.2H135.625V173.6H162.75V130.2Z" fill="#313131"/>
</svg>
