<svg xmlns="http://www.w3.org/2000/svg" width="300" height="200" viewBox="0 0 300 200"><rect width="100%" height="100%" fill="#DDDDDD"/><path fill="#999999" d="M62.36 91.165v14.46h-2.7v-14.46zm5.31 14.46H65.2v-10.26h1.51q.48 0 .63.45l.16.76q.27-.3.56-.55.3-.25.63-.43.34-.18.72-.28.39-.11.85-.11.97 0 1.59.53.63.52.94 1.39.24-.51.6-.88.36-.36.79-.59t.91-.34q.49-.11.98-.11.85 0 1.51.26t1.11.76.68 1.22q.24.72.24 1.65v6.53h-2.47v-6.53q0-.98-.43-1.48-.43-.49-1.26-.49-.38 0-.71.13-.32.13-.57.37-.24.25-.38.62t-.14.85v6.53h-2.48v-6.53q0-1.03-.41-1.5-.42-.47-1.22-.47-.54 0-1 .27-.47.26-.87.72zm19.7-2.65v-1.73q-1.07.05-1.8.18-.73.14-1.17.35t-.63.49-.19.61q0 .65.38.93.39.28 1.01.28.76 0 1.31-.27.56-.28 1.09-.84m-5.22-5.39-.44-.79q1.77-1.62 4.26-1.62.9 0 1.61.3.71.29 1.2.81.49.53.74 1.26.26.73.26 1.6v6.48h-1.12q-.35 0-.54-.1-.19-.11-.3-.43l-.22-.74q-.39.35-.76.61-.37.27-.77.45t-.86.28q-.45.09-1 .09-.65 0-1.2-.17-.55-.18-.95-.53t-.62-.87-.22-1.21q0-.39.13-.78.13-.38.42-.73.3-.35.77-.66t1.15-.54q.69-.23 1.6-.38.91-.14 2.08-.17v-.6q0-1.03-.44-1.53-.44-.49-1.27-.49-.6 0-1 .14-.39.14-.69.32l-.55.31q-.24.14-.54.14-.26 0-.44-.14-.18-.13-.29-.31m13.7 2.66q.46 0 .8-.12.34-.13.56-.35.23-.22.34-.53.12-.31.12-.68 0-.76-.46-1.21-.45-.44-1.36-.44t-1.37.44q-.45.45-.45 1.21 0 .36.11.67.12.31.34.53.23.23.57.36.35.12.8.12m2.79 5.84q0-.3-.18-.49t-.49-.3q-.31-.1-.73-.15-.41-.05-.88-.08l-.96-.04q-.49-.02-.96-.08-.41.23-.67.54-.25.31-.25.72 0 .27.13.5.14.24.43.41.3.17.77.27.47.09 1.15.09.69 0 1.19-.1.5-.11.82-.29.33-.19.48-.44.15-.26.15-.56m-.49-10.37h2.95v.92q0 .44-.53.54l-.92.17q.21.53.21 1.16 0 .76-.31 1.37-.3.62-.84 1.05t-1.28.66q-.73.24-1.58.24-.3 0-.58-.03t-.55-.08q-.48.29-.48.65 0 .31.28.45.29.15.76.21t1.07.08q.6.01 1.23.06t1.23.17q.6.13 1.07.4t.75.73q.29.47.29 1.2 0 .68-.34 1.32-.33.64-.97 1.14-.63.5-1.56.81-.92.3-2.1.3-1.16 0-2.02-.22-.86-.23-1.43-.6-.57-.38-.85-.87t-.28-1.02q0-.72.43-1.2.44-.49 1.2-.78-.41-.21-.65-.56t-.24-.92q0-.23.08-.48.09-.24.25-.48.17-.24.42-.46.25-.21.59-.38-.78-.42-1.23-1.12-.44-.7-.44-1.64 0-.76.3-1.38.31-.61.85-1.04.55-.44 1.29-.67.75-.23 1.63-.23.66 0 1.24.14.58.13 1.06.39m6.46 3.6h4.66q0-.48-.14-.9-.13-.43-.4-.75t-.69-.5q-.41-.19-.96-.19-1.07 0-1.69.61-.61.61-.78 1.73m6.3 1.49h-6.35q.06.79.28 1.36.22.58.58.96.36.37.85.55.5.19 1.1.19t1.03-.14q.44-.14.76-.31.33-.17.57-.31.25-.14.48-.14.31 0 .46.23l.71.9q-.41.48-.92.81-.51.32-1.07.51-.55.2-1.12.28-.58.08-1.12.08-1.07 0-1.99-.36-.92-.35-1.6-1.05-.68-.69-1.07-1.72-.39-1.02-.39-2.37 0-1.05.34-1.98.34-.92.97-1.61.64-.68 1.55-1.08.92-.4 2.07-.4.97 0 1.79.31t1.41.9q.59.6.92 1.46.34.87.34 1.98 0 .56-.12.76-.12.19-.46.19m4.9 4.82h-2.47v-10.26h1.51q.48 0 .63.45l.16.76q.27-.3.56-.55.3-.25.64-.43.33-.18.71-.28.39-.11.85-.11.97 0 1.59.53.63.52.94 1.39.24-.51.6-.88.36-.36.79-.59t.91-.34q.49-.11.98-.11.85 0 1.51.26t1.11.76.68 1.22q.24.72.24 1.65v6.53h-2.47v-6.53q0-.98-.43-1.48-.43-.49-1.26-.49-.38 0-.71.13-.32.13-.57.37-.24.25-.38.62t-.14.85v6.53h-2.48v-6.53q0-1.03-.42-1.5-.41-.47-1.21-.47-.54 0-1.01.27-.46.26-.86.72zm22.23-14.46v14.46h-2.7v-14.46zm4.98 4.65.17.81q.31-.31.65-.58.35-.26.73-.45.39-.18.83-.28.44-.11.96-.11.84 0 1.49.29.65.28 1.08.79.44.52.66 1.23.23.72.23 1.58v6.53h-2.47v-6.53q0-.94-.43-1.46-.43-.51-1.31-.51-.64 0-1.2.29t-1.06.79v7.42h-2.47v-10.26h1.51q.48 0 .63.45m15.58 6.77v-4.6q-.42-.51-.92-.72-.49-.21-1.06-.21-.56 0-1.01.21t-.77.63q-.32.43-.49 1.08-.17.66-.17 1.55 0 .9.14 1.52.15.63.42 1.02.27.4.66.57.39.18.87.18.77 0 1.31-.32t1.02-.91m0-11.82h2.47v14.86h-1.51q-.49 0-.62-.45l-.21-.99q-.62.71-1.43 1.15-.8.44-1.87.44-.84 0-1.54-.35t-1.21-1.02q-.5-.66-.78-1.64-.27-.98-.27-2.24 0-1.14.31-2.12t.89-1.7 1.39-1.12q.81-.41 1.82-.41.86 0 1.47.27t1.09.73zm4.99 4.6h2.48v10.26h-2.48zm2.82-2.99q0 .32-.13.6t-.35.49q-.21.21-.5.33-.29.13-.62.13-.32 0-.61-.13-.28-.12-.49-.33t-.34-.49q-.12-.28-.12-.6 0-.33.12-.62.13-.29.34-.5t.49-.34q.29-.12.61-.12.33 0 .62.12.29.13.5.34.22.21.35.5t.13.62m9 4.1-.56.89q-.1.16-.21.22-.11.07-.28.07-.18 0-.39-.1-.2-.1-.47-.22-.27-.13-.62-.23-.34-.1-.81-.1-.73 0-1.15.31-.41.31-.41.81 0 .33.21.55.22.23.57.4.36.17.81.3.45.14.91.3.47.16.92.37.45.2.8.51.36.32.57.76.22.44.22 1.06 0 .74-.27 1.36-.26.63-.78 1.08-.52.46-1.29.71-.76.26-1.76.26-.53 0-1.04-.09-.5-.1-.97-.27-.46-.17-.86-.4-.39-.23-.69-.5l.57-.94q.11-.17.26-.26t.38-.09.43.13q.21.13.48.28t.63.28q.37.13.93.13.44 0 .75-.11.32-.1.52-.27.21-.17.3-.4.1-.22.1-.46 0-.36-.22-.59-.21-.23-.57-.4-.35-.17-.81-.31-.45-.13-.93-.29-.47-.16-.93-.38-.45-.21-.81-.54-.35-.33-.57-.81-.21-.48-.21-1.16 0-.63.25-1.2t.73-.99q.49-.43 1.21-.69.73-.25 1.68-.25 1.06 0 1.93.35t1.45.92m4.44 1.89v4.6q.42.51.91.72.5.21 1.08.21.56 0 1.01-.21t.76-.64q.32-.43.49-1.09.17-.65.17-1.54 0-.9-.15-1.53-.14-.62-.41-1.01t-.66-.57q-.38-.18-.87-.18-.77 0-1.31.32-.54.33-1.02.92m-.33-2.55.2.95q.63-.71 1.43-1.15t1.88-.44q.84 0 1.53.35.7.35 1.2 1.01.51.67.78 1.64.28.98.28 2.24 0 1.15-.31 2.13t-.89 1.7q-.57.72-1.39 1.12-.81.41-1.82.41-.86 0-1.47-.27-.61-.26-1.09-.73v4.2h-2.47v-13.61h1.51q.48 0 .63.45m13.76-.61q1.14 0 2.07.37.94.37 1.6 1.05.67.68 1.03 1.66t.36 2.19q0 1.22-.36 2.2t-1.03 1.67q-.66.69-1.6 1.06-.93.37-2.07.37-1.15 0-2.09-.37t-1.61-1.06q-.66-.69-1.03-1.67-.36-.98-.36-2.2 0-1.21.36-2.19.37-.98 1.03-1.66.67-.68 1.61-1.05t2.09-.37m0 8.67q1.28 0 1.89-.86.62-.86.62-2.52t-.62-2.53q-.61-.87-1.89-.87-1.3 0-1.93.87-.62.88-.62 2.53t.62 2.51q.63.87 1.93.87m9.09-8.06.17.81q.31-.31.66-.58.34-.26.72-.45.39-.18.83-.28.44-.11.96-.11.84 0 1.49.29.65.28 1.08.79.44.52.67 1.23.22.72.22 1.58v6.53h-2.47v-6.53q0-.94-.43-1.46-.43-.51-1.31-.51-.64 0-1.2.29t-1.06.79v7.42h-2.47v-10.26h1.51q.48 0 .63.45m9.23-.45h2.47v10.26h-2.47zm2.37-4.36h2.4l-2.47 2.61q-.19.2-.37.28-.17.07-.45.07h-1.48l1.42-2.43q.15-.26.35-.39.2-.14.6-.14m9.93 4.36h1.95l-4.07 10.26h-2.24l-4.07-10.26h2.04q.28 0 .47.13.18.13.24.33l1.98 5.48q.16.48.28.94t.21.92q.1-.46.22-.92t.29-.94l2.02-5.48q.07-.2.25-.33t.43-.13m5.21 3.95h4.66q0-.48-.14-.9-.13-.43-.4-.75t-.68-.5q-.42-.19-.97-.19-1.07 0-1.68.61-.62.61-.79 1.73m6.3 1.49h-6.35q.06.79.28 1.36.22.58.58.96.36.37.85.55.5.19 1.1.19t1.04-.14q.43-.14.75-.31.33-.17.58-.31.24-.14.47-.14.31 0 .46.23l.71.9q-.41.48-.92.81-.51.32-1.06.51-.56.2-1.13.28-.58.08-1.12.08-1.07 0-1.99-.36-.92-.35-1.6-1.05-.68-.69-1.07-1.72-.39-1.02-.39-2.37 0-1.05.34-1.98.34-.92.97-1.61.64-.68 1.56-1.08.91-.4 2.06-.4.97 0 1.79.31t1.41.9q.59.6.93 1.46.33.87.33 1.98 0 .56-.12.76-.12.19-.46.19m2.46-10.04h2.47v14.86h-2.47z"/></svg>